<svg xmlns="http://www.w3.org/2000/svg" xmlns:xlink="http://www.w3.org/1999/xlink" width="512" height="512" viewBox="0 0 512 512"><defs><linearGradient id="a" x1="0.569" y1="0.422" x2="0.479" y2="0.689" gradientUnits="objectBoundingBox"><stop offset="0" stop-opacity="0.384"/><stop offset="1" stop-opacity="0"/></linearGradient><linearGradient id="b" x1="0.5" x2="0.5" y2="1" gradientUnits="objectBoundingBox"><stop offset="0" stop-opacity="0.376"/><stop offset="1" stop-opacity="0"/></linearGradient><linearGradient id="c" x1="0.518" y1="0.966" x2="0.254" y2="0.302" gradientUnits="objectBoundingBox"><stop offset="0" stop-opacity="0.969"/><stop offset="1" stop-opacity="0"/></linearGradient></defs><rect width="512" height="512" rx="50" fill="#3769ac"/><g transform="translate(93 165)"><g transform="translate(200 191) rotate(180)"><path d="M13,0H65A13.186,13.186,0,0,1,78,13V65c0,7.18,30.566,35,21,35-5.442,0-14.27,3.7-22.815-6.9C69.709,85.063,59.445,78,41,78,11.766,78,0,63.361,0,44.151V13A13,13,0,0,1,13,0Z" fill="#fff"/><g transform="translate(81.902 93.19)"><path d="M34.824,15.131l.42.638Q47.355,34.383,47.1,54.2h0v8.61c0,13.18,5.82,19,19,19h16a13,13,0,0,0,13-13h0V47.253c0-7.443-5.82-12.535-13-12.535h0l-22-.907c-4.6,0-12.456-9.326-19.031-16.017A13.445,13.445,0,0,0,45.1,18.81h52a13,13,0,0,1,13,13v52a13,13,0,0,1-13,13h-30.6c-21.969,0-34.4-14.58-34.4-34.823V55.07h0Q32.1,24.63,0,2.31C0-3.049,21.124,8.784,34.824,15.131Z" fill="#fff"/><path d="M44.754,39.81c.874,0,4.4-1.9,4.8-5.583.464-4.215-2.083-10.568.768-10.985,11.245-1.646,6.81,1.658,6.81-2.932,0-6.627.309-4.109-6.318-4.109s-30.16-9.313-30.16-2.686c0,1.905,6.64-.336,6.788,3.616.046,1.3,2.969,7.455,2,10.164-1.237,3.444-6.236,3.669-3.079,5.31C34.225,36.691,41.914,39.81,44.754,39.81Z" transform="matrix(0.998, -0.07, 0.07, 0.998, -7.678, 3.886)" fill="url(#a)"/></g><path d="M15,0c8.284,0,25.734-1.028,25.734,4.219S23.284,19,15,19C12.25,19-11.5,8.051-16.37,5.425c-9.073-4.887-.022-3.759-.022-6.932C-16.393-6.257,6.716,0,15,0Z" transform="matrix(0.454, 0.891, -0.891, 0.454, 67.266, 52.957)" fill="url(#b)"/><path d="M60.333,31.276C64.746,26.862,73.493,37.3,78,41.564q5.365,27.48,26.018,48.133,19.83,18.376,71.4,22.3c4.491,4.491-30.741,15-30.741,15q-35.961-.083-61.308-25.429Q56.234,74.439,53.51,41.564C49.019,37.072,55.842,35.767,60.333,31.276Z" fill="#fff"/></g><g transform="translate(228 1)"><path d="M14,0H66c7.18,0,10.5,1.5,13,6s0,59,0,59A13,13,0,0,1,66,78H33.5C38.319,68.737.925,63.131.925,43.4L1,13A13,13,0,0,1,14,0Z" fill="#fff"/><path d="M28.5,73c8.03,0,19.428-9.985,25.5-22C61.5,36.158,43.506,15.26,43.506,5.341q0-17.949-21.17-7.347Q-7.354,15.579-7.354,33.528C-7.354,51.478,10.551,73,28.5,73Z" transform="translate(8 1)" fill-rule="evenodd" fill="url(#c)"/></g><path d="M261.5,79c8.594,0,16.158-3.691,22.221-8.783S299.4,58.074,307,51.007c.087-.081.087-16.75-34.387-50.007-19.159,13-25.156,15.409-30.583,19.475A32.5,32.5,0,0,0,261.5,79Z" fill="#fff" fill-rule="evenodd"/><g transform="translate(111 1)"><g transform="translate(0 0)"><path d="M13,0H65A13.186,13.186,0,0,1,78,13V65c0,7.18,30.566,35,21,35-5.442,0-14.27,3.7-22.815-6.9C69.709,85.062,59.445,78,41,78,11.766,78,0,63.361,0,44.151V13A13,13,0,0,1,13,0Z" transform="translate(0)" fill="#fff"/></g><g transform="translate(81.902 94.144)"><path d="M34.824,14.176l.42.638Q47.355,33.429,47.1,53.245h0v8.61c0,13.18,5.82,19,19,19h16a13,13,0,0,0,13-13h0V46.3c0-7.443-5.82-12.535-13-12.535h0l-22-.907c-4.6,0-12.456-9.326-19.031-16.016A13.445,13.445,0,0,0,45.1,17.856h52a13,13,0,0,1,13,13v52a13,13,0,0,1-13,13h-30.6c-21.968,0-34.4-14.58-34.4-34.822V54.115h0Q32.1,23.676,0,1.356C0-4,21.124,7.83,34.824,14.176Z" transform="translate(0 0)" fill="#fff"/><path d="M24.1,28.676c.874,0,4.4-1.9,4.8-5.583.464-4.215-2.083-10.568.768-10.985,11.245-1.646,6.81,1.658,6.81-2.932,0-6.627.309-4.109-6.318-4.109S0-4.247,0,2.381C0,4.286,6.64,2.044,6.788,6c.046,1.3,2.969,7.455,2,10.164C7.548,19.6,2.549,19.83,5.706,21.471,13.566,25.557,21.255,28.676,24.1,28.676Z" transform="matrix(0.998, -0.07, 0.07, 0.998, 13.707, 12.597)" fill="url(#a)"/></g><path d="M35.409,3.287c8.284,0,25.734-1.028,25.734,4.219S43.693,22.287,35.409,22.287c-2.75,0-26.5-10.949-31.37-13.575-9.073-4.887-.022-3.759-.022-6.932C4.016-2.969,27.124,3.287,35.409,3.287Z" transform="matrix(0.454, 0.891, -0.891, 0.454, 60.93, 33.28)" fill="url(#b)"/><path d="M8.292,1.066c4.414-4.414,13.161,6.027,17.667,10.288q5.365,27.48,26.018,48.133,19.83,18.376,71.4,22.3c4.491,4.491-30.741,15-30.741,15q-35.961-.083-61.308-25.429Q4.193,44.23,1.469,11.354C-3.022,6.863,3.8,5.557,8.292,1.066Z" transform="translate(52.041 30.209)" fill="#fff"/></g></g></svg>